<?xml version="1.0" encoding="UTF-8" standalone="no" ?>
<!DOCTYPE svg PUBLIC "-//W3C//DTD SVG 1.1//EN" "http://www.w3.org/Graphics/SVG/1.1/DTD/svg11.dtd">
<svg xmlns="http://www.w3.org/2000/svg" xmlns:xlink="http://www.w3.org/1999/xlink" version="1.1" width="1024" height="1024" viewBox="0 0 1024 1024" xml:space="preserve">
<desc>Created with Fabric.js 5.3.0</desc>
<defs>
</defs>
<g transform="matrix(1 0 0 1 512.5 512.5)" id="backgroundElement"  >
<rect style="stroke: none; stroke-width: 1; stroke-dasharray: none; stroke-linecap: butt; stroke-dashoffset: 0; stroke-linejoin: miter; stroke-miterlimit: 4; fill: rgb(255,255,255); fill-opacity: 0; fill-rule: nonzero; opacity: 1;"  x="-512" y="-512" rx="0" ry="0" width="1024" height="1024" />
</g>
<g transform="matrix(1 0 0 1.05 511.62 516.54)"  >
<path style="stroke: none; stroke-width: 1; stroke-dasharray: none; stroke-linecap: butt; stroke-dashoffset: 0; stroke-linejoin: miter; stroke-miterlimit: 4; fill: rgb(255,255,255); fill-rule: nonzero; opacity: 1;"  transform=" translate(-511.62, -384)" d="M 544.05078 287.6582 L 517.5117200000001 296.44531 L 517.5117200000001 429.30859 L 544.05078 429.30859 L 544.05078 287.65819999999997 z M 303.55469000000005 292.22656 L 275.9628900000001 301.01562 L 275.9628900000001 388.36133 C 275.9628900000001 396.2699 269.4613500000001 402.77148 261.72852000000006 402.77148 C 257.86210000000005 402.77148 254.17135000000005 401.19089 251.53516000000005 398.55469 L 232.02734000000004 418.0625 C 239.93591000000004 425.97108 250.48076000000003 430.36328 261.72852000000006 430.36328 C 272.80053000000004 430.36328 283.34533000000005 425.97108 291.2539100000001 418.0625 C 299.1624900000001 410.15392 303.55469000000005 399.60908 303.55469000000005 388.36133 L 303.55469000000005 292.22656 z M 766.6328100000001 329.07422 C 750.6464900000001 329.07922 746.87431 329.09415 746.5644500000001 329.15625 C 746.35499 329.19805 745.9946100000001 329.29688 745.76367 329.37695 C 745.53273 329.45765 745.1462600000001 329.63729 744.9043 329.77539 C 744.66233 329.91349 744.29209 330.17127 744.08203 330.34766 C 743.87198 330.52406 743.5553 330.83878000000004 743.37891 331.04883 C 743.2025100000001 331.25946 742.95995 331.59906 742.83984 331.80273 C 742.71973 332.00639 742.5454 332.36778 742.45312 332.60742 C 742.36092 332.84648 742.2438500000001 333.24421 742.19336 333.49023 L 742.10156 333.9375 L 742.10156 373.3457 L 742.19336 373.79297 C 742.24386 374.03900000000004 742.36088 374.43614 742.45312 374.67578000000003 C 742.54543 374.91543 742.75096 375.32087 742.9082 375.57617000000005 C 743.0654499999999 375.83090000000004 743.3416 376.20253 743.52148 376.4003900000001 C 743.70136 376.59884000000005 744.05502 376.9159400000001 744.30859 377.10742000000005 C 744.56274 377.29890000000006 744.96581 377.54896 745.20312 377.66211000000004 C 745.44102 377.77467 745.86565 377.93719000000004 746.14648 378.02539 L 746.65625 378.18555000000003 L 786.57812 378.18555000000003 L 787.0703100000001 378.05664 C 787.3418600000001 377.98524000000003 787.8254000000001 377.79845 788.14453 377.64062 C 788.46366 377.48221 788.93494 377.18254 789.19141 376.97656 C 789.44788 376.77057 789.8213000000001 376.39714 790.02148 376.14648 C 790.22167 375.89581 790.51384 375.43046 790.66992 375.11133 C 790.8260200000001 374.79219 791.01224 374.30808 791.08594 374.03711 L 791.21875 373.54492 L 791.21875 333.74023 L 791.08398 333.24609 C 791.00968 332.97452999999996 790.85173 332.54062 790.73047 332.28125 C 790.60861 332.02246 790.3980799999999 331.64745 790.26172 331.44727 C 790.12595 331.24708 789.8420699999999 330.9061 789.63086 330.69141 C 789.42023 330.47672 788.99979 330.14165 788.69922 329.94727 C 788.39865 329.75288 787.9388399999999 329.51645 787.67773 329.42188 C 787.41605 329.32727 787.00426 329.21006 786.76172 329.16015999999996 C 786.36599 329.07836 784.30592 329.06962 766.63281 329.07421999999997 z M 714.9746100000001 329.08789 C 698.1184900000001 329.07889 695.01502 329.0899 694.6953100000001 329.1582 C 694.4881600000001 329.2029 694.16218 329.29676 693.9707000000001 329.36523 C 693.7792200000001 329.43423 693.4512900000001 329.57583 693.2441400000001 329.67969 C 693.0364200000001 329.78355 692.7110100000001 329.98501 692.5195300000001 330.12891 C 692.3280500000002 330.27281000000005 691.9983200000001 330.57227 691.7871100000001 330.79102 C 691.5759 331.01035 691.2819300000001 331.37707 691.1328100000001 331.60742 C 690.98427 331.83778 690.78461 332.20824999999996 690.6894500000001 332.43164 C 690.5943500000001 332.65446000000003 690.4580900000001 333.0674 690.3867200000001 333.34766 L 690.2558600000001 333.85547 L 690.2558600000001 373.42773 L 690.38867 373.94727 C 690.46117 374.23275 690.63714 374.71173 690.7793 375.01172 C 690.92146 375.31228000000004 691.15255 375.71793 691.2929700000001 375.91406 C 691.43397 376.11018 691.7279400000001 376.44287 691.9472700000001 376.65234 C 692.1660300000001 376.86181 692.5111700000001 377.14567999999997 692.7148400000001 377.28319999999997 C 692.9185100000001 377.42071 693.2727500000001 377.62037999999995 693.5019500000001 377.72655999999995 C 693.7317300000001 377.83275 694.14093 377.97903999999994 694.4101600000001 378.05272999999994 L 694.8984400000002 378.1855499999999 L 734.7617200000002 378.1855499999999 L 735.2539100000002 378.05272999999994 C 735.5254700000003 377.97962999999993 735.9823100000002 377.8052799999999 736.2695300000003 377.66601999999995 C 736.5567500000003 377.52675999999997 736.9616200000003 377.28477999999996 737.1699200000003 377.12694999999997 C 737.3782400000002 376.96912 737.7303200000002 376.64336999999995 737.9531200000002 376.4043 C 738.1759400000002 376.16465999999997 738.4718400000003 375.77918999999997 738.6093800000002 375.54882999999995 C 738.7463100000002 375.31789999999995 738.9309500000002 374.94345999999996 739.0214800000002 374.71484 C 739.1119800000002 374.48622 739.2357400000002 374.08929 739.2949200000003 373.83398 L 739.4043000000003 373.37109 L 739.4043000000003 333.85546999999997 L 739.2734400000003 333.34765999999996 C 739.2020400000002 333.06739999999996 739.0658600000003 332.65446 738.9707000000003 332.43163999999996 C 738.8755000000003 332.20824999999996 738.6764600000004 331.83639999999997 738.5273400000003 331.60546999999997 C 738.3776300000003 331.37453 738.0706200000003 330.99476999999996 737.8437500000003 330.75976999999995 C 737.6168700000003 330.52476999999993 737.2735100000003 330.22033999999996 737.0820300000004 330.08397999999994 C 736.8905500000004 329.94762999999995 736.5461900000004 329.7424199999999 736.3164100000004 329.62694999999997 C 736.0860500000003 329.51205999999996 735.6669800000003 329.34542999999996 735.3867200000003 329.25780999999995 L 734.8769500000003 329.09765999999996 L 714.9746100000003 329.08788999999996 z M 460.9687500000001 330.89062 C 447.6120400000001 330.89062 435.3106100000001 336.16397 425.8203100000001 345.47852 C 416.5057700000001 354.79307 411.40820000000014 367.2702 411.40820000000014 380.45117 C 411.40820000000014 393.63213 416.50577000000015 406.11123 425.8203100000001 415.42578 C 435.3106100000001 424.74033 447.6120400000001 430.01171999999997 460.9687500000001 430.01171999999997 C 467.82285000000013 430.01171999999997 474.5012700000001 428.60686 480.8281200000001 425.79492 C 486.9792400000001 423.15873 492.4266900000001 419.29199 496.99609000000015 414.54688 L 478.36719000000016 396.97265999999996 C 473.7977900000002 401.89354999999995 467.64711000000017 404.5293 460.96875000000017 404.5293 C 452.3571900000002 404.5293 444.79994000000016 399.95959999999997 440.58203000000015 393.28125 L 510.3535200000001 393.28125 L 510.3535200000001 380.45117 C 510.3535200000001 367.2702 505.2579100000001 354.79307 495.9433600000001 345.47852 C 486.6288100000001 336.16397 474.1497100000001 330.89062 460.9687500000001 330.89062 z M 318.17578000000015 331.41797 L 318.17578000000015 386.60352 C 318.17578000000015 398.37852 322.74384000000015 409.45087 331.00391000000013 417.71094 C 339.2639800000001 425.97101 350.3363400000001 430.53906 362.1113300000001 430.53906 C 373.8863300000001 430.53906 384.95868000000013 425.97101 393.2187500000001 417.71094 C 401.4788200000001 409.45087 406.0488300000001 398.37852 406.0488300000001 386.60352 L 406.0488300000001 331.41797 L 379.68555000000015 331.41797 L 379.68555000000015 386.60352 C 379.68555000000015 396.26956 371.77737000000013 404.17773 362.1113300000001 404.17773 C 352.4452900000001 404.17773 344.5371100000001 396.26956 344.5371100000001 386.60352 L 344.5371100000001 331.41797 L 318.1757800000001 331.41797 z M 554.9707000000001 331.41797 L 554.9707000000001 356.02344000000005 L 595.7441400000001 356.02344000000005 L 552.3359400000002 410.67969000000005 L 552.3359400000002 429.30859000000004 L 633.8808600000002 429.30859000000004 L 633.8808600000002 404.70508000000007 L 590.2968800000002 404.70508000000007 L 633.8808600000002 350.04883000000007 L 633.8808600000002 331.4179700000001 L 554.9707000000002 331.4179700000001 z M 460.9687500000001 356.375 C 469.4045700000001 356.375 476.9618100000001 360.94473 481.35547000000014 367.79883 L 440.58203000000015 367.79883 C 444.79994000000016 360.94473 452.3571900000002 356.375 460.96875000000017 356.375 z M 714.7441400000001 380.36914 C 704.1157900000002 380.37314000000003 695.2507000000002 380.39908 695.0429700000001 380.42578000000003 C 694.8358200000001 380.45248000000004 694.4448000000001 380.54281000000003 694.1738300000001 380.62695 C 693.9028500000001 380.71165 693.5235100000001 380.86071000000004 693.33203 380.95703000000003 C 693.1399700000001 381.05393000000004 692.8262500000001 381.23917000000006 692.63477 381.36914 C 692.44328 381.49912 692.10404 381.78911 691.87891 382.01367 C 691.65435 382.23879999999997 691.36436 382.57805 691.23438 382.76953 C 691.10499 382.96101 690.93222 383.24863 690.85156 383.40819999999997 C 690.7714599999999 383.56775999999996 690.63608 383.89432999999997 690.5507799999999 384.13280999999995 C 690.4648799999999 384.37128999999993 690.3583399999999 384.81508999999994 690.3124999999999 385.11913999999996 C 690.2410999999998 385.59146 690.2285199999999 388.48704 690.2285199999999 404.96484 C 690.2285199999999 421.52387 690.2405999999999 424.33569 690.3124999999999 424.80859 C 690.3588999999998 425.11148 690.4585699999999 425.54224 690.5351599999999 425.76561999999996 C 690.6117599999999 425.98903999999993 690.7471599999999 426.31636999999995 690.8359399999999 426.49218999999994 C 690.9247399999999 426.66741999999994 691.10498 426.96671999999995 691.23438 427.15819999999997 C 691.36433 427.34968 691.65435 427.69088 691.87891 427.91601999999995 C 692.10404 428.14056999999997 692.44329 428.43056999999993 692.63477 428.5605499999999 C 692.82625 428.69051999999994 693.14055 428.8757599999999 693.33203 428.9726599999999 C 693.52351 429.0689599999999 693.89377 429.2144799999999 694.1543 429.29687999999993 C 694.4154100000001 429.37927999999994 694.84616 429.47277999999994 695.1113300000001 429.5058599999999 C 695.43627 429.5464599999999 701.85355 429.56690999999995 714.85742 429.5664099999999 C 731.3915000000001 429.5664099999999 734.2009300000001 429.5543199999999 734.6738300000001 429.48241999999993 C 734.9773 429.4360199999999 735.4094200000001 429.33636999999993 735.6328100000001 429.25976999999995 C 735.85621 429.18316999999996 736.1821900000001 429.04774999999995 736.35742 428.95897999999994 C 736.5332400000001 428.87017999999995 736.8339100000001 428.69132999999994 737.02539 428.56249999999994 C 737.21687 428.43427999999994 737.5569 428.14209999999997 737.7832 427.91405999999995 C 738.00892 427.6860199999999 738.29892 427.34540999999996 738.42773 427.15624999999994 C 738.55597 426.96650999999997 738.74099 426.6543699999999 738.83789 426.46288999999996 C 738.9341900000001 426.27140999999995 739.0797200000001 425.90115999999995 739.16211 425.64061999999996 C 739.24451 425.37952999999993 739.33996 424.94875999999994 739.37305 424.68359 C 739.4136500000001 424.35864999999995 739.43164 417.94782 739.43164 404.96484 C 739.43164 391.98186 739.41365 385.56908 739.37305 385.24413999999996 C 739.33995 384.97896999999995 739.24451 384.55017 739.16211 384.28905999999995 C 739.07971 384.02852999999993 738.93421 383.65827999999993 738.83789 383.4667999999999 C 738.74109 383.2753199999999 738.55597 382.9631799999999 738.42773 382.77343999999994 C 738.29892 382.5842799999999 738.00892 382.24366999999995 737.7832 382.01561999999996 C 737.5568999999999 381.78757999999993 737.21687 381.49404 737.02539 381.36522999999994 C 736.8339100000001 381.23698999999993 736.51962 381.0539299999999 736.32812 380.9570299999999 C 736.13666 380.86072999999993 735.76639 380.7151999999999 735.50586 380.6328099999999 C 735.24475 380.5504099999999 734.814 380.4549699999999 734.54883 380.4218799999999 C 734.22273 380.3812799999999 727.8292299999999 380.3639399999999 714.7441399999999 380.3691399999999 z M 663.1875000000001 380.38281 C 652.3850800000001 380.37881 643.3984100000001 380.39723 643.2168000000001 380.42383 C 643.0357600000001 380.45053 642.7214600000001 380.51473 642.5195300000001 380.56641 C 642.3181900000002 380.61811 641.9101500000002 380.77697 641.6113300000002 380.91797 C 641.3125000000002 381.05897000000004 640.8934300000002 381.30173 640.6816400000001 381.45898 C 640.4692700000002 381.61622 640.1342000000001 381.91374 639.9375000000001 382.11914 C 639.7402200000001 382.32397000000003 639.4470500000001 382.69681 639.2851600000001 382.94922 C 639.1232800000001 383.20104000000003 638.9097800000002 383.61774 638.8105500000001 383.87305000000003 C 638.7113500000002 384.12836000000004 638.5812500000002 384.57216000000005 638.5214800000001 384.85938000000004 L 638.4140600000001 385.38086000000004 L 638.4140600000001 424.54883000000007 L 638.5214800000001 425.07031000000006 C 638.5812800000001 425.35753000000005 638.7127000000002 425.80429000000004 638.8125000000001 426.06250000000006 C 638.9123000000001 426.3207100000001 639.1459800000001 426.7653000000001 639.3339800000001 427.05078000000003 C 639.5213900000001 427.33568 639.8706800000001 427.75280000000004 640.1074200000002 427.97852 C 640.3447400000001 428.20364 640.6630100000002 428.4723 640.8144500000002 428.57617 C 640.9658900000002 428.68061 641.3302400000002 428.8797 641.6250000000002 429.01953 C 641.9197700000002 429.15938 642.3942100000003 429.33371 642.6796900000003 429.40625 L 643.1992200000003 429.53711 L 682.7128900000004 429.53711 L 683.1777300000003 429.42969 C 683.4330400000003 429.37049 683.8446100000003 429.24496999999997 684.0918000000004 429.15039 C 684.3395600000003 429.05579 684.7697300000003 428.82767 685.0488300000004 428.64258 C 685.3279300000004 428.45806 685.7118100000004 428.15285 685.9003900000004 427.96484 C 686.0889700000004 427.77684999999997 686.3578400000004 427.46687 686.5000000000003 427.27538999999996 C 686.6421600000003 427.08390999999995 686.8607800000003 426.72513 686.9843800000003 426.47851999999995 C 687.1085500000004 426.2324899999999 687.2809400000003 425.80173999999994 687.3691400000004 425.52147999999994 L 687.5293000000004 425.01171999999997 L 687.5293000000004 384.91796999999997 L 687.3691400000004 384.40819999999997 C 687.2809400000003 384.12793999999997 687.1085400000004 383.69719999999995 686.9843800000003 383.45117 C 686.8607700000003 383.20456 686.6421600000003 382.84578 686.5000000000003 382.6543 C 686.3578400000004 382.46281999999997 686.0761400000004 382.14295999999996 685.8730500000004 381.94336 C 685.6699600000004 381.74376 685.3263900000004 381.46206 685.1093800000003 381.31640999999996 C 684.8929500000004 381.17078 684.5394900000003 380.97052999999994 684.3242200000003 380.87305 C 684.1095200000003 380.77554999999995 683.6843300000003 380.62710999999996 683.3808600000003 380.54296999999997 L 682.8300800000003 380.39061999999996 L 663.1875000000003 380.38280999999995 z M 326.72070000000014 456.93945 L 326.72070000000014 457.98242000000005 L 328.63086000000015 458.13477000000006 L 328.63086000000015 474.03711000000004 L 326.72070000000014 474.18945 L 326.72070000000014 475.2207 L 331.93555000000015 475.2207 L 331.93555000000015 474.18945 L 330.02539000000013 474.03711000000004 L 330.02539000000013 469.04492000000005 L 331.65430000000015 469.04492000000005 L 336.06055000000015 474.10742000000005 L 334.72461000000015 474.18945 L 334.72461000000015 475.2207 L 339.17773000000017 475.2207 L 339.17773000000017 474.18945 L 337.77148000000017 474.06055000000003 L 332.8378900000002 468.33008 L 337.1738300000002 463.72461 L 338.6503900000002 463.58398 L 338.6503900000002 462.54102 L 334.1855500000002 462.54102 L 334.1855500000002 463.58398 L 335.3457000000002 463.66602 L 335.3691400000002 463.72461 L 331.51367000000016 467.83788999999996 L 330.0253900000002 467.83788999999996 L 330.0253900000002 456.93944999999997 L 326.7207000000002 456.93944999999997 z M 364.24414000000013 456.93945 L 364.24414000000013 458.9082 L 365.6386700000001 458.9082 L 365.6386700000001 456.93945 L 364.24414000000013 456.93945 z M 433.9472700000001 456.93945 L 433.9472700000001 458.9082 L 435.3418000000001 458.9082 L 435.3418000000001 456.93945 L 433.9472700000001 456.93945 z M 465.49414000000013 456.93945 L 465.49414000000013 458.9082 L 466.8886700000001 458.9082 L 466.8886700000001 456.93945 L 465.49414000000013 456.93945 z M 507.68164000000013 456.93945 L 507.68164000000013 458.9082 L 509.0761700000001 458.9082 L 509.0761700000001 456.93945 L 507.68164000000013 456.93945 z M 542.8613300000002 456.93945 L 542.8613300000002 457.98242000000005 L 544.7714800000002 458.13477000000006 L 544.7714800000002 474.03711000000004 L 542.8613300000002 474.18945 L 542.8613300000002 475.2207 L 548.0761700000002 475.2207 L 548.0761700000002 474.18945 L 546.1660200000001 474.03711000000004 L 546.1660200000001 466.29102000000006 C 546.4707000000001 465.45508000000007 546.9433600000001 464.78711000000004 547.5839800000001 464.28711000000004 C 548.2324200000002 463.77930000000003 549.0371100000001 463.52539 549.9980500000001 463.52539 C 550.9511700000002 463.52539 551.6972600000001 463.82617 552.2363300000002 464.42773 C 552.7832000000002 465.02149 553.0566400000001 466.00586 553.0566400000001 467.38086 L 553.0566400000001 474.03711 L 551.1464800000001 474.18944999999997 L 551.1464800000001 475.22069999999997 L 556.3730500000001 475.22069999999997 L 556.3730500000001 474.18944999999997 L 554.4628900000001 474.03711 L 554.4628900000001 467.4043 C 554.4628900000001 465.66211 554.1035100000001 464.37694999999997 553.3847700000001 463.54882999999995 C 552.6738300000001 462.72070999999994 551.6503900000001 462.30663999999996 550.3144500000001 462.30663999999996 C 549.3769500000001 462.30663999999996 548.5566400000001 462.51757999999995 547.8535200000001 462.93944999999997 C 547.1503900000001 463.36132999999995 546.5878900000001 463.95117 546.1660200000001 464.70897999999994 L 546.1660200000001 456.93944999999997 L 542.8613300000001 456.93944999999997 z M 588.6816400000001 456.93945 L 588.6816400000001 458.9082 L 590.0761700000002 458.9082 L 590.0761700000002 456.93945 L 588.6816400000001 456.93945 z M 607.4082000000001 456.93945 L 607.4082000000001 457.98242000000005 L 609.3183600000001 458.13477000000006 L 609.3183600000001 474.03711000000004 L 607.4082000000001 474.18945 L 607.4082000000001 475.2207 L 612.62305 475.2207 L 612.62305 474.18945 L 610.71289 474.03711000000004 L 610.71289 466.29102000000006 C 611.0175800000001 465.45508000000007 611.49023 464.78711000000004 612.13086 464.28711000000004 C 612.7793 463.77930000000003 613.58399 463.52539 614.5449199999999 463.52539 C 615.4980499999999 463.52539 616.2441399999999 463.82617 616.7832 464.42773 C 617.33008 465.02149 617.60352 466.00586 617.60352 467.38086 L 617.60352 474.03711 L 615.69336 474.18944999999997 L 615.69336 475.22069999999997 L 620.9199199999999 475.22069999999997 L 620.9199199999999 474.18944999999997 L 619.0097699999999 474.03711 L 619.0097699999999 467.4043 C 619.0097699999999 465.66211 618.6503899999999 464.37694999999997 617.9316399999999 463.54882999999995 C 617.2206999999999 462.72070999999994 616.1972599999999 462.30663999999996 614.86133 462.30663999999996 C 613.92383 462.30663999999996 613.10352 462.51757999999995 612.4003899999999 462.93944999999997 C 611.6972599999999 463.36132999999995 611.1347599999999 463.95117 610.7128899999999 464.70897999999994 L 610.7128899999999 456.93944999999997 L 607.4081999999999 456.93944999999997 z M 644.35742 456.93945 L 644.35742 457.98242000000005 L 646.2675800000001 458.13477000000006 L 646.2675800000001 464.45117000000005 C 645.83789 463.76367000000005 645.2988300000001 463.23633000000007 644.65039 462.8691400000001 C 644.00195 462.4941400000001 643.23632 462.3066400000001 642.35352 462.3066400000001 C 640.82226 462.3066400000001 639.62695 462.91602000000006 638.76758 464.13477000000006 C 637.9160099999999 465.34571000000005 637.49023 466.9628900000001 637.49023 468.98633000000007 L 637.49023 469.23242000000005 C 637.49023 471.12305000000003 637.91601 472.63477000000006 638.76758 473.76758000000007 C 639.62695 474.9003900000001 640.81445 475.4668000000001 642.33008 475.4668000000001 C 643.2285099999999 475.4668000000001 644.0097599999999 475.2871100000001 644.67383 474.9277300000001 C 645.3378899999999 474.5683600000001 645.88086 474.05664000000013 646.30273 473.3925800000001 L 646.41992 475.22070000000014 L 649.58398 475.22070000000014 L 649.58398 474.18945000000014 L 647.67383 474.03711000000015 L 647.67383 456.93945000000014 L 646.26758 456.93945000000014 L 644.3574199999999 456.93945000000014 z M 653.55664 456.93945 L 653.55664 458.9082 L 654.95117 458.9082 L 654.95117 456.93945 L 653.55664 456.93945 z M 704.83789 456.93945 L 704.83789 458.9082 L 706.23242 458.9082 L 706.23242 456.93945 L 704.83789 456.93945 z M 282.34180000000003 458.1582 L 282.34180000000003 459.20117000000005 L 284.25195 459.35352000000006 L 284.25195 474.03711000000004 L 282.34180000000003 474.18945 L 282.34180000000003 475.2207 L 287.55664 475.2207 L 287.55664 474.18945 L 285.64648 474.03711000000004 L 285.64648 467.68555000000003 L 285.51758 460.27930000000003 L 285.58789 460.26758 L 291.91602 475.2207 L 292.88867 475.2207 L 299.22852 460.19727 L 299.29883 460.2207 L 299.18164 467.68555000000003 L 299.18164 474.03711000000004 L 297.27148 474.18945 L 297.27148 475.2207 L 302.48633 475.2207 L 302.48633 474.18945 L 300.57617 474.03711000000004 L 300.57617 459.35352000000006 L 302.48633 459.20117000000005 L 302.48633 458.1582 L 298.72461 458.1582 L 292.43163999999996 473.18164 L 292.36132999999995 473.18164 L 286.0918 458.1582 L 284.25194999999997 458.1582 L 282.3418 458.1582 z M 355.65430000000003 459.29492000000005 L 355.65430000000003 462.54102000000006 L 353.47461000000004 462.54102000000006 L 353.47461000000004 463.6894500000001 L 355.65430000000003 463.6894500000001 L 355.65430000000003 471.9511700000001 C 355.65430000000003 473.1699200000001 355.90039 474.0605500000001 356.39258 474.6230500000001 C 356.89258 475.1855500000001 357.58789 475.4668000000001 358.47852 475.4668000000001 C 358.81445 475.4668000000001 359.15039 475.4393700000001 359.48633 475.3847700000001 C 359.82226 475.3300700000001 360.10742 475.25195000000014 360.34180000000003 475.15039000000013 L 360.13086000000004 474.1074200000001 C 359.84961000000004 474.1543200000001 359.59961000000004 474.1894200000001 359.38086000000004 474.21289000000013 C 359.16992000000005 474.22849000000014 358.95117000000005 474.2363300000001 358.72461000000004 474.2363300000001 C 358.22461000000004 474.2363300000001 357.82226 474.06445000000014 357.51758000000007 473.72070000000014 C 357.2207000000001 473.36914000000013 357.07227000000006 472.77930000000015 357.07227000000006 471.95117000000016 L 357.07227000000006 463.68945000000014 L 359.86133000000007 463.68945000000014 L 359.86133000000007 462.5410200000001 L 357.07227000000006 462.5410200000001 L 357.07227000000006 459.2949200000001 L 355.65430000000003 459.2949200000001 z M 456.90430000000003 459.29492000000005 L 456.90430000000003 462.54102000000006 L 454.72461000000004 462.54102000000006 L 454.72461000000004 463.6894500000001 L 456.90430000000003 463.6894500000001 L 456.90430000000003 471.9511700000001 C 456.90430000000003 473.1699200000001 457.15038000000004 474.0605500000001 457.64258 474.6230500000001 C 458.14258 475.1855500000001 458.83789 475.4668000000001 459.72852 475.4668000000001 C 460.06445 475.4668000000001 460.40039 475.4393700000001 460.73633 475.3847700000001 C 461.07226 475.3300700000001 461.35742 475.25195000000014 461.59180000000003 475.15039000000013 L 461.38086000000004 474.1074200000001 C 461.09961000000004 474.1543200000001 460.84961000000004 474.1894200000001 460.63086000000004 474.21289000000013 C 460.41992000000005 474.22849000000014 460.20117000000005 474.2363300000001 459.97461000000004 474.2363300000001 C 459.47461000000004 474.2363300000001 459.07226 474.06445000000014 458.76758000000007 473.72070000000014 C 458.4707000000001 473.36914000000013 458.32227000000006 472.77930000000015 458.32227000000006 471.95117000000016 L 458.32227000000006 463.68945000000014 L 461.11133000000007 463.68945000000014 L 461.11133000000007 462.5410200000001 L 458.32227000000006 462.5410200000001 L 458.32227000000006 459.2949200000001 L 456.90430000000003 459.2949200000001 z M 536.49805 459.29492000000005 L 536.49805 462.54102000000006 L 534.31836 462.54102000000006 L 534.31836 463.6894500000001 L 536.49805 463.6894500000001 L 536.49805 471.9511700000001 C 536.49805 473.1699200000001 536.74414 474.0605500000001 537.2363300000001 474.6230500000001 C 537.7363300000001 475.1855500000001 538.43164 475.4668000000001 539.3222700000001 475.4668000000001 C 539.6582000000001 475.4668000000001 539.9941400000001 475.4393700000001 540.3300800000001 475.3847700000001 C 540.66601 475.3300700000001 540.95117 475.25195000000014 541.18555 475.15039000000013 L 540.97461 474.1074200000001 C 540.69336 474.1543200000001 540.44336 474.1894200000001 540.22461 474.21289000000013 C 540.0136699999999 474.22849000000014 539.7949199999999 474.2363300000001 539.56836 474.2363300000001 C 539.06836 474.2363300000001 538.66601 474.06445000000014 538.36133 473.72070000000014 C 538.06445 473.36914000000013 537.91602 472.77930000000015 537.91602 471.95117000000016 L 537.91602 463.68945000000014 L 540.70508 463.68945000000014 L 540.70508 462.5410200000001 L 537.91602 462.5410200000001 L 537.91602 459.2949200000001 L 536.49805 459.2949200000001 z M 624.85742 459.29492000000005 L 624.85742 462.54102000000006 L 622.67773 462.54102000000006 L 622.67773 463.6894500000001 L 624.85742 463.6894500000001 L 624.85742 471.9511700000001 C 624.85742 473.1699200000001 625.10352 474.0605500000001 625.5957000000001 474.6230500000001 C 626.0957000000001 475.1855500000001 626.79101 475.4668000000001 627.6816400000001 475.4668000000001 C 628.0175800000002 475.4668000000001 628.3535200000001 475.4393700000001 628.6894500000001 475.3847700000001 C 629.0253900000001 475.3300700000001 629.31055 475.25195000000014 629.54492 475.15039000000013 L 629.33398 474.1074200000001 C 629.05274 474.1543200000001 628.80274 474.1894200000001 628.58398 474.21289000000013 C 628.37305 474.22849000000014 628.1543 474.2363300000001 627.92773 474.2363300000001 C 627.42773 474.2363300000001 627.02539 474.06445000000014 626.7207 473.72070000000014 C 626.42383 473.36914000000013 626.27539 472.77930000000015 626.27539 471.95117000000016 L 626.27539 463.68945000000014 L 629.06445 463.68945000000014 L 629.06445 462.5410200000001 L 626.27539 462.5410200000001 L 626.27539 459.2949200000001 L 624.85742 459.2949200000001 z M 696.24805 459.29492000000005 L 696.24805 462.54102000000006 L 694.06836 462.54102000000006 L 694.06836 463.6894500000001 L 696.24805 463.6894500000001 L 696.24805 471.9511700000001 C 696.24805 473.1699200000001 696.49414 474.0605500000001 696.9863300000001 474.6230500000001 C 697.4863300000001 475.1855500000001 698.18164 475.4668000000001 699.0722700000001 475.4668000000001 C 699.4082000000001 475.4668000000001 699.7441400000001 475.4393700000001 700.0800800000001 475.3847700000001 C 700.41601 475.3300700000001 700.70117 475.25195000000014 700.93555 475.15039000000013 L 700.72461 474.1074200000001 C 700.44336 474.1543200000001 700.19336 474.1894200000001 699.97461 474.21289000000013 C 699.7636699999999 474.22849000000014 699.5449199999999 474.2363300000001 699.31836 474.2363300000001 C 698.81836 474.2363300000001 698.41601 474.06445000000014 698.11133 473.72070000000014 C 697.81445 473.36914000000013 697.66602 472.77930000000015 697.66602 471.95117000000016 L 697.66602 463.68945000000014 L 700.45508 463.68945000000014 L 700.45508 462.5410200000001 L 697.66602 462.5410200000001 L 697.66602 459.2949200000001 L 696.24805 459.2949200000001 z M 309.68164 462.3066400000001 C 308.75976 462.3066400000001 307.88867 462.44727000000006 307.06836000000004 462.72852000000006 C 306.25586000000004 463.00977000000006 305.55664 463.37696000000005 304.9707 463.83008000000007 L 304.95898 466.26758000000007 L 306.11914 466.26758000000007 L 306.23633 464.56836000000004 C 306.62695 464.24023000000005 307.11133 463.98242000000005 307.68945 463.79492000000005 C 308.27539 463.59961000000004 308.91992000000005 463.50195 309.62305000000003 463.50195 C 310.66992000000005 463.50195 311.48242000000005 463.75976 312.06055000000003 464.27539 C 312.64649000000003 464.79101 312.93945 465.50195 312.93945 466.4082 L 312.93945 468.08398 L 310.13867000000005 468.08398 C 308.4121200000001 468.08398 307.04493 468.42773 306.03711000000004 469.11523 C 305.02930000000003 469.80273 304.52539 470.73242 304.52539 471.9043 C 304.52539 472.99805 304.86524000000003 473.86523 305.54492 474.50586 C 306.22462 475.14648 307.18555 475.4668 308.42773 475.4668 C 309.4043 475.4668 310.28321 475.24805 311.06445 474.81055 C 311.84571 474.37305 312.47071 473.82225999999997 312.93945 473.15819999999997 C 312.93945 473.47851999999995 312.95895 473.79492 312.99805000000003 474.10742 C 313.03715000000005 474.41992 313.10351 474.79102 313.19727000000006 475.22069999999997 L 315.69336000000004 475.22069999999997 L 315.69336000000004 474.18944999999997 L 314.42773000000005 474.10742 C 314.38863000000003 473.88086 314.3613 473.65039 314.3457000000001 473.41602 C 314.3377000000001 473.17383 314.33398000000005 472.92383 314.33398000000005 472.66602 L 314.33398000000005 466.43164 C 314.33398000000005 465.10351 313.90819000000005 464.08399000000003 313.0566400000001 463.37305000000003 C 312.2050700000001 462.66211000000004 311.0800700000001 462.30664 309.6816400000001 462.30664 z M 324.59961000000004 462.3066400000001 C 323.74805000000003 462.3066400000001 323.00977000000006 462.5293000000001 322.38477000000006 462.9746100000001 C 321.76757000000003 463.4121100000001 321.27930000000003 464.0214900000001 320.91992000000005 464.8027300000001 L 320.91992000000005 464.65039000000013 L 320.7441400000001 462.5410200000001 L 319.5253900000001 462.5410200000001 L 317.61523000000005 462.5410200000001 L 317.61523000000005 463.5839800000001 L 319.5253900000001 463.7363300000001 L 319.5253900000001 474.0371100000001 L 317.61523000000005 474.1894500000001 L 317.61523000000005 475.2207000000001 L 322.83008000000007 475.2207000000001 L 322.83008000000007 474.1894500000001 L 320.91992000000005 474.0371100000001 L 320.91992000000005 466.4668000000001 C 321.16211000000004 465.5996100000001 321.56445 464.9199200000001 322.12695 464.4277300000001 C 322.69727 463.9277300000001 323.42383 463.6777300000001 324.30664 463.6777300000001 L 325.34961000000004 463.7480500000001 L 325.53711000000004 462.4355500000001 C 325.42774000000003 462.4043500000001 325.28711000000004 462.3769200000001 325.11523000000005 462.3535200000001 C 324.95117000000005 462.32222000000013 324.77930000000003 462.30664000000013 324.59961000000004 462.30664000000013 z M 346.31445 462.3066400000001 C 344.83789 462.3066400000001 343.57617000000005 462.9043000000001 342.52930000000003 464.0996100000001 C 341.49023000000005 465.2949200000001 340.9707 466.7988300000001 340.9707 468.6113300000001 L 340.9707 469.2558600000001 C 340.9707 471.0605500000001 341.49414 472.5488300000001 342.54102 473.7207000000001 C 343.58789 474.8847600000001 344.90821 475.4668000000001 346.50195 475.4668000000001 C 347.50977 475.4668000000001 348.37695 475.3222600000001 349.10352 475.0332000000001 C 349.83008 474.73633000000007 350.43164 474.3378900000001 350.9082 473.8378900000001 L 350.31055000000003 472.8769500000001 C 349.87305000000003 473.33008000000007 349.3457 473.6777400000001 348.72852000000006 473.9199200000001 C 348.11132000000003 474.1621100000001 347.3691400000001 474.2832000000001 346.5019500000001 474.2832000000001 C 345.26758000000007 474.2832000000001 344.26758000000007 473.8027400000001 343.5019500000001 472.8418000000001 C 342.7441400000001 471.8730500000001 342.36523000000005 470.6777300000001 342.36523000000005 469.2558600000001 L 342.36523000000005 468.9160200000001 L 351.31836000000004 468.9160200000001 L 351.31836000000004 467.72070000000014 C 351.31836000000004 466.0800800000001 350.87305000000003 464.7675800000001 349.98242000000005 463.78320000000014 C 349.09180000000003 462.7988300000001 347.8691400000001 462.30664000000013 346.31445 462.30664000000013 z M 377.05273 462.3066400000001 C 376.10743 462.3066400000001 375.28711 462.5214900000001 374.5918 462.95117000000005 C 373.9043 463.37305000000003 373.35742999999997 463.97461000000004 372.95117 464.75586000000004 L 372.82227 462.54102000000006 L 369.66992 462.54102000000006 L 369.66992 463.58398000000005 L 371.58008 463.73633000000007 L 371.58008 474.03711000000004 L 369.66992 474.18945 L 369.66992 475.2207 L 374.89648 475.2207 L 374.89648 474.18945 L 372.98633 474.03711000000004 L 372.98633 466.37305000000003 C 373.25976 465.51367000000005 373.70507000000003 464.82617000000005 374.32227 464.31055000000003 C 374.94727 463.78711000000004 375.75195 463.52539 376.73633 463.52539 C 377.73633 463.52539 378.50586 463.82617 379.04492 464.42773 C 379.5918 465.02929 379.86523 466.05664 379.86523 467.50977 L 379.86523 474.03711 L 377.95508 474.18944999999997 L 377.95508 475.22069999999997 L 383.18164 475.22069999999997 L 383.18164 474.18944999999997 L 381.27148 474.03711 L 381.27148 467.49805 C 381.27148 465.7168 380.91211 464.40821 380.19336 463.57227 C 379.47461 462.72852 378.42773 462.30664 377.05273 462.30664 z M 390.24805 462.3066400000001 C 388.7168 462.3066400000001 387.51757999999995 462.91602000000006 386.65038999999996 464.13477000000006 C 385.79101999999995 465.34571000000005 385.36132999999995 466.9628900000001 385.36132999999995 468.98633000000007 L 385.36132999999995 469.23242000000005 C 385.36132999999995 471.12305000000003 385.79101999999995 472.63477000000006 386.65038999999996 473.76758000000007 C 387.50975999999997 474.9003900000001 388.70116999999993 475.4668000000001 390.22461 475.4668000000001 C 391.10742 475.4668000000001 391.87696 475.2949200000001 392.53319999999997 474.9511700000001 C 393.18945999999994 474.5996100000001 393.73242 474.0996100000001 394.16211 473.4511700000001 L 394.16211 475.05664000000013 C 394.16211 476.32226000000014 393.85742999999997 477.3105400000001 393.24805 478.0214800000001 C 392.63867 478.7324200000001 391.73242 479.08789000000013 390.5293 479.08789000000013 C 389.91211999999996 479.08789000000013 389.32227 479.02149000000014 388.75977 478.8886700000001 C 388.20507 478.7558600000001 387.67382 478.5683600000001 387.16602 478.3261700000001 L 386.79102 479.5097700000001 C 387.30664 479.7675800000001 387.9082 479.97070000000014 388.5957 480.11914000000013 C 389.29102 480.26757000000015 389.94336000000004 480.34180000000015 390.55273 480.34180000000015 C 392.13086 480.34180000000015 393.36133 479.86914000000013 394.24414 478.9238300000001 C 395.12695 477.9785200000001 395.56836000000004 476.68945000000014 395.56836000000004 475.05664000000013 L 395.56836000000004 462.5410200000001 L 394.38477000000006 462.5410200000001 L 394.2207000000001 464.5683600000001 C 393.79102000000006 463.8496100000001 393.2441400000001 463.2949200000001 392.58008000000007 462.9043000000001 C 391.9238200000001 462.5058600000001 391.1464900000001 462.3066400000001 390.2480500000001 462.3066400000001 z M 411.49413999999996 462.3066400000001 C 410.59569999999997 462.3066400000001 409.81055 462.4980500000001 409.13866999999993 462.8808600000001 C 408.4746099999999 463.2636700000001 407.9277399999999 463.8066400000001 407.4980499999999 464.5097700000001 L 407.32226999999995 462.5410200000001 L 404.24022999999994 462.5410200000001 L 404.24022999999994 463.5839800000001 L 406.15038999999996 463.7363300000001 L 406.15038999999996 478.90039000000013 L 404.24022999999994 479.0527300000001 L 404.24022999999994 480.09570000000014 L 409.45507999999995 480.09570000000014 L 409.45507999999995 479.0527300000001 L 407.54491999999993 478.90039000000013 L 407.54491999999993 473.5097700000001 C 407.9667999999999 474.1347700000001 408.5097599999999 474.61914000000013 409.17382999999995 474.96289000000013 C 409.84569999999997 475.29882000000015 410.62694999999997 475.46680000000015 411.51757999999995 475.46680000000015 C 413.0253799999999 475.46680000000015 414.20897999999994 474.90430000000015 415.0683599999999 473.77930000000015 C 415.92772999999994 472.64648000000017 416.35741999999993 471.13086000000015 416.35741999999993 469.23242000000016 L 416.35741999999993 468.9863300000002 C 416.35741999999993 466.9628900000002 415.92772999999994 465.34571000000017 415.0683599999999 464.1347700000002 C 414.20897999999994 462.9160200000002 413.0175699999999 462.3066400000002 411.4941399999999 462.3066400000002 z M 424.23241999999993 462.3066400000001 C 422.54491999999993 462.3066400000001 421.1894499999999 462.9043000000001 420.16601999999995 464.0996100000001 C 419.14257999999995 465.2949200000001 418.6308599999999 466.8261700000001 418.6308599999999 468.6933600000001 L 418.6308599999999 469.0800800000001 C 418.6308599999999 470.9550800000001 419.14257999999995 472.4902300000001 420.16601999999995 473.68555000000015 C 421.18944999999997 474.87305000000015 422.55272999999994 475.46680000000015 424.2558599999999 475.46680000000015 C 425.9433599999999 475.46680000000015 427.2949299999999 474.87305000000015 428.3105499999999 473.68555000000015 C 429.3339899999999 472.49023000000017 429.8456999999999 470.9550800000001 429.8456999999999 469.0800800000001 L 429.8456999999999 468.6933600000001 C 429.8456999999999 466.8261700000001 429.3339899999999 465.2949200000001 428.3105499999999 464.0996100000001 C 427.2871099999999 462.9043000000001 425.9277399999999 462.3066400000001 424.23241999999993 462.3066400000001 z M 446.7558599999999 462.3066400000001 C 445.8105499999999 462.3066400000001 444.9902399999999 462.5214900000001 444.29491999999993 462.95117000000005 C 443.60741999999993 463.37305000000003 443.0605499999999 463.97461000000004 442.6542999999999 464.75586000000004 L 442.5253899999999 462.54102000000006 L 439.3730499999999 462.54102000000006 L 439.3730499999999 463.58398000000005 L 441.2831999999999 463.73633000000007 L 441.2831999999999 474.03711000000004 L 439.3730499999999 474.18945 L 439.3730499999999 475.2207 L 444.5996099999999 475.2207 L 444.5996099999999 474.18945 L 442.6894499999999 474.03711000000004 L 442.6894499999999 466.37305000000003 C 442.9628899999999 465.51367000000005 443.4081999999999 464.82617000000005 444.0253899999999 464.31055000000003 C 444.6503899999999 463.78711000000004 445.4550799999999 463.52539 446.4394499999999 463.52539 C 447.4394499999999 463.52539 448.2089899999999 463.82617 448.7480499999999 464.42773 C 449.2949299999999 465.02929 449.5683599999999 466.05664 449.5683599999999 467.50977 L 449.5683599999999 474.03711 L 447.6581999999999 474.18944999999997 L 447.6581999999999 475.22069999999997 L 452.8847699999999 475.22069999999997 L 452.8847699999999 474.18944999999997 L 450.97460999999987 474.03711 L 450.97460999999987 467.49805 C 450.97460999999987 465.7168 450.61523999999986 464.40821 449.8964799999999 463.57227 C 449.17773999999986 462.72852 448.13085999999987 462.30664 446.75585999999987 462.30664 z M 478.30272999999994 462.3066400000001 C 477.35742999999997 462.3066400000001 476.53711999999996 462.5214900000001 475.8417999999999 462.95117000000005 C 475.1542999999999 463.37305000000003 474.60741999999993 463.97461000000004 474.20116999999993 464.75586000000004 L 474.07226999999995 462.54102000000006 L 470.91991999999993 462.54102000000006 L 470.91991999999993 463.58398000000005 L 472.83007999999995 463.73633000000007 L 472.83007999999995 474.03711000000004 L 470.91991999999993 474.18945 L 470.91991999999993 475.2207 L 476.14647999999994 475.2207 L 476.14647999999994 474.18945 L 474.23632999999995 474.03711000000004 L 474.23632999999995 466.37305000000003 C 474.50975999999997 465.51367000000005 474.95507 464.82617000000005 475.57226999999995 464.31055000000003 C 476.19726999999995 463.78711000000004 477.00194999999997 463.52539 477.98632999999995 463.52539 C 478.98632999999995 463.52539 479.7558599999999 463.82617 480.29491999999993 464.42773 C 480.8417999999999 465.02929 481.11522999999994 466.05664 481.11522999999994 467.50977 L 481.11522999999994 474.03711 L 479.20507999999995 474.18944999999997 L 479.20507999999995 475.22069999999997 L 484.43163999999996 475.22069999999997 L 484.43163999999996 474.18944999999997 L 482.52147999999994 474.03711 L 482.52147999999994 467.49805 C 482.52147999999994 465.7168 482.1621099999999 464.40821 481.4433599999999 463.57227 C 480.7246099999999 462.72852 479.67772999999994 462.30664 478.30272999999994 462.30664 z M 491.4980499999999 462.3066400000001 C 489.9667999999999 462.3066400000001 488.7675799999999 462.91602000000006 487.9003899999999 464.13477000000006 C 487.0410199999999 465.34571000000005 486.6113299999999 466.9628900000001 486.6113299999999 468.98633000000007 L 486.6113299999999 469.23242000000005 C 486.6113299999999 471.12305000000003 487.0410199999999 472.63477000000006 487.9003899999999 473.76758000000007 C 488.7597599999999 474.9003900000001 489.9511699999999 475.4668000000001 491.4746099999999 475.4668000000001 C 492.35741999999993 475.4668000000001 493.12695999999994 475.2949200000001 493.7831999999999 474.9511700000001 C 494.4394599999999 474.5996100000001 494.98241999999993 474.0996100000001 495.4121099999999 473.4511700000001 L 495.4121099999999 475.05664000000013 C 495.4121099999999 476.32226000000014 495.1074299999999 477.3105400000001 494.4980499999999 478.0214800000001 C 493.88866999999993 478.7324200000001 492.98241999999993 479.08789000000013 491.7792999999999 479.08789000000013 C 491.1621199999999 479.08789000000013 490.57226999999995 479.02149000000014 490.00976999999995 478.8886700000001 C 489.4550699999999 478.7558600000001 488.9238199999999 478.5683600000001 488.41601999999995 478.3261700000001 L 488.04101999999995 479.5097700000001 C 488.55663999999996 479.7675800000001 489.15819999999997 479.97070000000014 489.84569999999997 480.11914000000013 C 490.54101999999995 480.26757000000015 491.19336 480.34180000000015 491.80272999999994 480.34180000000015 C 493.3808599999999 480.34180000000015 494.61132999999995 479.86914000000013 495.49413999999996 478.9238300000001 C 496.37694999999997 477.9785200000001 496.81836 476.68945000000014 496.81836 475.05664000000013 L 496.81836 462.5410200000001 L 495.63477 462.5410200000001 L 495.4707 464.5683600000001 C 495.04102 463.8496100000001 494.49414 463.2949200000001 493.83008 462.9043000000001 C 493.17382000000003 462.5058600000001 492.39649000000003 462.3066400000001 491.49805000000003 462.3066400000001 z M 520.4902299999999 462.3066400000001 C 519.5449299999999 462.3066400000001 518.7246099999999 462.5214900000001 518.0292999999999 462.95117000000005 C 517.3417999999999 463.37305000000003 516.7949299999999 463.97461000000004 516.3886699999999 464.75586000000004 L 516.2597699999999 462.54102000000006 L 513.1074199999999 462.54102000000006 L 513.1074199999999 463.58398000000005 L 515.01758 463.73633000000007 L 515.01758 474.03711000000004 L 513.1074199999999 474.18945 L 513.1074199999999 475.2207 L 518.3339799999999 475.2207 L 518.3339799999999 474.18945 L 516.4238299999998 474.03711000000004 L 516.4238299999998 466.37305000000003 C 516.6972599999998 465.51367000000005 517.1425699999999 464.82617000000005 517.7597699999999 464.31055000000003 C 518.3847699999999 463.78711000000004 519.1894499999999 463.52539 520.1738299999998 463.52539 C 521.1738299999998 463.52539 521.9433599999999 463.82617 522.4824199999998 464.42773 C 523.0292999999998 465.02929 523.3027299999998 466.05664 523.3027299999998 467.50977 L 523.3027299999998 474.03711 L 521.3925799999997 474.18944999999997 L 521.3925799999997 475.22069999999997 L 526.6191399999997 475.22069999999997 L 526.6191399999997 474.18944999999997 L 524.7089799999997 474.03711 L 524.7089799999997 467.49805 C 524.7089799999997 465.7168 524.3496099999996 464.40821 523.6308599999996 463.57227 C 522.9121099999996 462.72852 521.8652299999997 462.30664 520.4902299999997 462.30664 z M 563.8144499999999 462.3066400000001 C 562.3378899999999 462.3066400000001 561.0761699999998 462.9043000000001 560.0292999999998 464.0996100000001 C 558.9902299999998 465.2949200000001 558.4706999999999 466.7988300000001 558.4706999999999 468.6113300000001 L 558.4706999999999 469.2558600000001 C 558.4706999999999 471.0605500000001 558.9941399999999 472.5488300000001 560.0410199999999 473.7207000000001 C 561.0878899999999 474.8847600000001 562.4082099999999 475.4668000000001 564.0019499999999 475.4668000000001 C 565.0097699999999 475.4668000000001 565.8769499999999 475.3222600000001 566.6035199999999 475.0332000000001 C 567.3300799999998 474.73633000000007 567.9316399999999 474.3378900000001 568.4081999999999 473.8378900000001 L 567.8105499999998 472.8769500000001 C 567.3730499999998 473.33008000000007 566.8456999999999 473.6777400000001 566.2285199999998 473.9199200000001 C 565.6113199999998 474.1621100000001 564.8691399999998 474.2832000000001 564.0019499999997 474.2832000000001 C 562.7675799999997 474.2832000000001 561.7675799999997 473.8027400000001 561.0019499999997 472.8418000000001 C 560.2441399999998 471.8730500000001 559.8652299999998 470.6777300000001 559.8652299999998 469.2558600000001 L 559.8652299999998 468.9160200000001 L 568.8183599999998 468.9160200000001 L 568.8183599999998 467.72070000000014 C 568.8183599999998 466.0800800000001 568.3730499999998 464.7675800000001 567.4824199999997 463.78320000000014 C 566.5917999999997 462.7988300000001 565.3691399999997 462.30664000000013 563.8144499999997 462.30664000000013 z M 584.0996099999999 462.3066400000001 C 583.2480499999999 462.3066400000001 582.5097699999999 462.5293000000001 581.8847699999999 462.9746100000001 C 581.2675699999999 463.4121100000001 580.7792999999999 464.0214900000001 580.4199199999999 464.8027300000001 L 580.4199199999999 464.65039000000013 L 580.2441399999999 462.5410200000001 L 579.0253899999999 462.5410200000001 L 577.1152299999999 462.5410200000001 L 577.1152299999999 463.5839800000001 L 579.0253899999999 463.7363300000001 L 579.0253899999999 474.0371100000001 L 577.1152299999999 474.1894500000001 L 577.1152299999999 475.2207000000001 L 582.3300799999998 475.2207000000001 L 582.3300799999998 474.1894500000001 L 580.4199199999998 474.0371100000001 L 580.4199199999998 466.4668000000001 C 580.6621099999999 465.5996100000001 581.0644499999999 464.9199200000001 581.6269499999999 464.4277300000001 C 582.1972699999999 463.9277300000001 582.9238299999998 463.6777300000001 583.8066399999999 463.6777300000001 L 584.8496099999999 463.7480500000001 L 585.0371099999999 462.4355500000001 C 584.9277399999999 462.4043500000001 584.7871099999999 462.3769200000001 584.6152299999999 462.3535200000001 C 584.4511699999999 462.32222000000013 584.2792999999999 462.30664000000013 584.0996099999999 462.30664000000013 z M 599.3105499999999 462.3066400000001 C 597.77929 462.3066400000001 596.58008 462.91602000000006 595.7128899999999 464.13477000000006 C 594.8535199999999 465.34571000000005 594.42383 466.9628900000001 594.42383 468.98633000000007 L 594.42383 469.23242000000005 C 594.42383 471.12305000000003 594.85352 472.63477000000006 595.7128899999999 473.76758000000007 C 596.5722599999998 474.9003900000001 597.7636699999999 475.4668000000001 599.2871099999999 475.4668000000001 C 600.1699199999998 475.4668000000001 600.9394599999998 475.2949200000001 601.5956999999999 474.9511700000001 C 602.2519599999998 474.5996100000001 602.7949199999998 474.0996100000001 603.2246099999999 473.4511700000001 L 603.2246099999999 475.05664000000013 C 603.2246099999999 476.32226000000014 602.9199199999998 477.3105400000001 602.3105499999999 478.0214800000001 C 601.7011699999999 478.7324200000001 600.7949199999999 479.08789000000013 599.5917999999999 479.08789000000013 C 598.9746099999999 479.08789000000013 598.3847699999999 479.02149000000014 597.8222699999999 478.8886700000001 C 597.2675699999999 478.7558600000001 596.7363199999999 478.5683600000001 596.2285199999999 478.3261700000001 L 595.8535199999999 479.5097700000001 C 596.3691399999999 479.7675800000001 596.9706999999999 479.97070000000014 597.6581999999999 480.11914000000013 C 598.3535199999999 480.26757000000015 599.0058599999999 480.34180000000015 599.6152299999999 480.34180000000015 C 601.1933599999999 480.34180000000015 602.4238299999998 479.86914000000013 603.3066399999999 478.9238300000001 C 604.18945 477.9785200000001 604.6308599999999 476.68945000000014 604.6308599999999 475.05664000000013 L 604.6308599999999 462.5410200000001 L 603.4472699999999 462.5410200000001 L 603.2831999999999 464.5683600000001 C 602.8535199999999 463.8496100000001 602.3066399999999 463.2949200000001 601.6425799999998 462.9043000000001 C 600.9863199999999 462.5058600000001 600.2089799999999 462.3066400000001 599.3105499999998 462.3066400000001 z M 666.13086 462.3066400000001 C 665.2793 462.3066400000001 664.54102 462.5293000000001 663.91602 462.9746100000001 C 663.29882 463.4121100000001 662.81055 464.0214900000001 662.45117 464.8027300000001 L 662.45117 464.65039000000013 L 662.27539 462.5410200000001 L 661.05664 462.5410200000001 L 659.14648 462.5410200000001 L 659.14648 463.5839800000001 L 661.05664 463.7363300000001 L 661.05664 474.0371100000001 L 659.14648 474.1894500000001 L 659.14648 475.2207000000001 L 664.36133 475.2207000000001 L 664.36133 474.1894500000001 L 662.4511699999999 474.0371100000001 L 662.4511699999999 466.4668000000001 C 662.69336 465.5996100000001 663.0957 464.9199200000001 663.6582 464.4277300000001 C 664.22852 463.9277300000001 664.95508 463.6777300000001 665.83789 463.6777300000001 L 666.88086 463.7480500000001 L 667.06836 462.4355500000001 C 666.95899 462.4043500000001 666.81836 462.3769200000001 666.64648 462.3535200000001 C 666.48242 462.32222000000013 666.31055 462.30664000000013 666.13086 462.30664000000013 z M 674.06445 462.3066400000001 C 672.58789 462.3066400000001 671.3261699999999 462.9043000000001 670.2792999999999 464.0996100000001 C 669.2402299999999 465.2949200000001 668.7207 466.7988300000001 668.7207 468.6113300000001 L 668.7207 469.2558600000001 C 668.7207 471.0605500000001 669.24414 472.5488300000001 670.29102 473.7207000000001 C 671.33789 474.8847600000001 672.65821 475.4668000000001 674.25195 475.4668000000001 C 675.25977 475.4668000000001 676.12695 475.3222600000001 676.85352 475.0332000000001 C 677.58008 474.73633000000007 678.18164 474.3378900000001 678.6582 473.8378900000001 L 678.0605499999999 472.8769500000001 C 677.6230499999999 473.33008000000007 677.0957 473.6777400000001 676.4785199999999 473.9199200000001 C 675.8613199999999 474.1621100000001 675.1191399999999 474.2832000000001 674.2519499999999 474.2832000000001 C 673.0175799999998 474.2832000000001 672.0175799999998 473.8027400000001 671.2519499999999 472.8418000000001 C 670.4941399999999 471.8730500000001 670.1152299999999 470.6777300000001 670.1152299999999 469.2558600000001 L 670.1152299999999 468.9160200000001 L 679.0683599999999 468.9160200000001 L 679.0683599999999 467.72070000000014 C 679.0683599999999 466.0800800000001 678.6230499999999 464.7675800000001 677.7324199999998 463.78320000000014 C 676.8417999999998 462.7988300000001 675.6191399999998 462.30664000000013 674.0644499999999 462.30664000000013 z M 687.00195 462.3066400000001 C 685.2910099999999 462.3066400000001 683.96289 462.9003900000001 683.01758 464.0878900000001 C 682.0722599999999 465.2753900000001 681.59961 466.79102000000006 681.59961 468.63477000000006 L 681.59961 469.1269500000001 C 681.59961 470.98633000000007 682.07226 472.50977000000006 683.01758 473.69727000000006 C 683.9628899999999 474.8769500000001 685.2949299999999 475.46680000000003 687.0136699999999 475.46680000000003 C 688.30274 475.46680000000003 689.4316399999999 475.07226 690.4003899999999 474.2832 C 691.3769599999999 473.49414 691.8457099999999 472.51368 691.8066399999999 471.34180000000003 L 691.7831999999999 471.27148000000005 L 690.5410199999999 471.27148000000005 C 690.5410199999999 472.21680000000003 690.1855499999999 472.95508000000007 689.4746099999999 473.48633000000007 C 688.7636699999998 474.01758000000007 687.9433599999999 474.2832000000001 687.0136699999998 474.2832000000001 C 685.6386699999998 474.2832000000001 684.6269599999998 473.79883000000007 683.9785199999998 472.83008000000007 C 683.3300799999997 471.86133000000007 683.0058599999998 470.6269500000001 683.0058599999998 469.1269500000001 L 683.0058599999998 468.63477000000006 C 683.0058599999998 467.15821000000005 683.3300799999997 465.93555000000003 683.9785199999998 464.96680000000003 C 684.6347699999998 463.99024000000003 685.6425799999997 463.50195 687.0019499999997 463.50195 C 687.7128899999998 463.50195 688.3456999999997 463.62695 688.9003899999998 463.87695 C 689.4628899999998 464.11914 689.9316399999998 464.45117000000005 690.3066399999998 464.87305000000003 L 690.5292999999998 467.12305000000003 L 691.7246099999998 467.12305000000003 L 691.6660199999998 464.35742000000005 C 691.1581999999997 463.72461000000004 690.4980499999998 463.22461000000004 689.6855499999998 462.85742000000005 C 688.8730499999998 462.49024000000003 687.9785099999998 462.3066400000001 687.0019499999999 462.3066400000001 z M 716.1230499999999 462.3066400000001 C 714.4355499999999 462.3066400000001 713.08008 462.9043000000001 712.0566399999999 464.0996100000001 C 711.0331999999999 465.2949200000001 710.5214799999999 466.8261700000001 710.5214799999999 468.6933600000001 L 710.5214799999999 469.0800800000001 C 710.5214799999999 470.9550800000001 711.0331999999999 472.4902300000001 712.0566399999999 473.68555000000015 C 713.08008 474.87305000000015 714.4433599999999 475.46680000000015 716.1464799999999 475.46680000000015 C 717.8339799999999 475.46680000000015 719.1855499999999 474.87305000000015 720.2011699999999 473.68555000000015 C 721.22461 472.49023000000017 721.73633 470.9550800000001 721.73633 469.0800800000001 L 721.73633 468.6933600000001 C 721.73633 466.8261700000001 721.22461 465.2949200000001 720.2011699999999 464.0996100000001 C 719.17774 462.9043000000001 717.81836 462.3066400000001 716.1230499999999 462.3066400000001 z M 731.1464799999999 462.3066400000001 C 730.2011799999999 462.3066400000001 729.3808599999999 462.5214900000001 728.6855499999999 462.95117000000005 C 727.9980499999999 463.37305000000003 727.4511799999999 463.97461000000004 727.0449199999999 464.75586000000004 L 726.9160199999999 462.54102000000006 L 723.7636699999999 462.54102000000006 L 723.7636699999999 463.58398000000005 L 725.67383 463.73633000000007 L 725.67383 474.03711000000004 L 723.7636699999999 474.18945 L 723.7636699999999 475.2207 L 728.9902299999999 475.2207 L 728.9902299999999 474.18945 L 727.0800799999998 474.03711000000004 L 727.0800799999998 466.37305000000003 C 727.3535099999998 465.51367000000005 727.7988199999999 464.82617000000005 728.4160199999999 464.31055000000003 C 729.0410199999999 463.78711000000004 729.8456999999999 463.52539 730.8300799999998 463.52539 C 731.8300799999998 463.52539 732.5996099999999 463.82617 733.1386699999998 464.42773 C 733.6855499999998 465.02929 733.9589799999998 466.05664 733.9589799999998 467.50977 L 733.9589799999998 474.03711 L 732.0488299999997 474.18944999999997 L 732.0488299999997 475.22069999999997 L 737.2753899999997 475.22069999999997 L 737.2753899999997 474.18944999999997 L 735.3652299999997 474.03711 L 735.3652299999997 467.49805 C 735.3652299999997 465.7168 735.0058599999996 464.40821 734.2871099999996 463.57227 C 733.5683599999996 462.72852 732.5214799999997 462.30664 731.1464799999997 462.30664 z M 362.3339799999999 462.54102000000006 L 362.3339799999999 463.58398000000005 L 364.2441399999999 463.73633000000007 L 364.2441399999999 474.03711000000004 L 362.3339799999999 474.18945 L 362.3339799999999 475.2207 L 367.5488299999999 475.2207 L 367.5488299999999 474.18945 L 365.6386699999999 474.03711000000004 L 365.6386699999999 462.54102000000006 L 362.3339799999999 462.54102000000006 z M 432.03710999999987 462.54102000000006 L 432.03710999999987 463.58398000000005 L 433.9472699999999 463.73633000000007 L 433.9472699999999 474.03711000000004 L 432.03710999999987 474.18945 L 432.03710999999987 475.2207 L 437.25194999999985 475.2207 L 437.25194999999985 474.18945 L 435.34179999999986 474.03711000000004 L 435.34179999999986 462.54102000000006 L 432.03710999999987 462.54102000000006 z M 463.5839799999999 462.54102000000006 L 463.5839799999999 463.58398000000005 L 465.4941399999999 463.73633000000007 L 465.4941399999999 474.03711000000004 L 463.5839799999999 474.18945 L 463.5839799999999 475.2207 L 468.7988299999999 475.2207 L 468.7988299999999 474.18945 L 466.8886699999999 474.03711000000004 L 466.8886699999999 462.54102000000006 L 463.5839799999999 462.54102000000006 z M 505.7714799999999 462.54102000000006 L 505.7714799999999 463.58398000000005 L 507.6816399999999 463.73633000000007 L 507.6816399999999 474.03711000000004 L 505.7714799999999 474.18945 L 505.7714799999999 475.2207 L 510.9863299999999 475.2207 L 510.9863299999999 474.18945 L 509.0761699999999 474.03711000000004 L 509.0761699999999 462.54102000000006 L 505.7714799999999 462.54102000000006 z M 586.7714799999999 462.54102000000006 L 586.7714799999999 463.58398000000005 L 588.6816399999999 463.73633000000007 L 588.6816399999999 474.03711000000004 L 586.7714799999999 474.18945 L 586.7714799999999 475.2207 L 591.9863299999998 475.2207 L 591.9863299999998 474.18945 L 590.0761699999998 474.03711000000004 L 590.0761699999998 462.54102000000006 L 586.7714799999998 462.54102000000006 z M 651.6464799999999 462.54102000000006 L 651.6464799999999 463.58398000000005 L 653.5566399999999 463.73633000000007 L 653.5566399999999 474.03711000000004 L 651.6464799999999 474.18945 L 651.6464799999999 475.2207 L 656.8613299999998 475.2207 L 656.8613299999998 474.18945 L 654.9511699999998 474.03711000000004 L 654.9511699999998 462.54102000000006 L 651.6464799999998 462.54102000000006 z M 702.9277299999999 462.54102000000006 L 702.9277299999999 463.58398000000005 L 704.8378899999999 463.73633000000007 L 704.8378899999999 474.03711000000004 L 702.9277299999999 474.18945 L 702.9277299999999 475.2207 L 708.1425799999998 475.2207 L 708.1425799999998 474.18945 L 706.2324199999998 474.03711000000004 L 706.2324199999998 462.54102000000006 L 702.9277299999998 462.54102000000006 z M 346.3144499999999 463.5019500000001 C 347.4238299999999 463.5019500000001 348.3027399999999 463.8730500000001 348.95116999999993 464.61523000000005 C 349.5996099999999 465.35742000000005 349.92382999999995 466.27929000000006 349.92382999999995 467.38086000000004 L 349.92382999999995 467.73242000000005 L 342.49413999999996 467.73242000000005 L 342.47069999999997 467.67383000000007 C 342.58788999999996 466.47852000000006 342.99805 465.48633000000007 343.70117 464.69727000000006 C 344.41211 463.9003900000001 345.28321 463.5019500000001 346.31444999999997 463.5019500000001 z M 424.23241999999993 463.5019500000001 C 425.54491999999993 463.5019500000001 426.57226999999995 464.0058600000001 427.3144499999999 465.0136700000001 C 428.0644499999999 466.0214900000001 428.4394499999999 467.2480500000001 428.4394499999999 468.6933600000001 L 428.4394499999999 469.0800800000001 C 428.4394499999999 470.5488300000001 428.0683599999999 471.78320000000014 427.32616999999993 472.78320000000014 C 426.5839899999999 473.78320000000014 425.5605499999999 474.28320000000014 424.2558599999999 474.28320000000014 C 422.92772999999994 474.28320000000014 421.89257999999995 473.78320000000014 421.1503899999999 472.78320000000014 C 420.40819999999985 471.78320000000014 420.0371099999999 470.5488300000001 420.0371099999999 469.0800800000001 L 420.0371099999999 468.6933600000001 C 420.0371099999999 467.2480500000001 420.4081999999999 466.0214900000001 421.1503899999999 465.0136700000001 C 421.8925799999999 464.0058600000001 422.9199199999999 463.5019500000001 424.2324199999999 463.5019500000001 z M 563.81445 463.5019500000001 C 564.92383 463.5019500000001 565.80274 463.8730500000001 566.4511699999999 464.61523000000005 C 567.09961 465.35742000000005 567.42383 466.27929000000006 567.42383 467.38086000000004 L 567.42383 467.73242000000005 L 559.9941399999999 467.73242000000005 L 559.9706999999999 467.67383000000007 C 560.0878899999999 466.47852000000006 560.4980499999998 465.48633000000007 561.2011699999998 464.69727000000006 C 561.9121099999999 463.9003900000001 562.7832099999998 463.5019500000001 563.8144499999999 463.5019500000001 z M 674.06445 463.5019500000001 C 675.17383 463.5019500000001 676.05274 463.8730500000001 676.7011699999999 464.61523000000005 C 677.34961 465.35742000000005 677.67383 466.27929000000006 677.67383 467.38086000000004 L 677.67383 467.73242000000005 L 670.2441399999999 467.73242000000005 L 670.2206999999999 467.67383000000007 C 670.3378899999999 466.47852000000006 670.7480499999998 465.48633000000007 671.4511699999998 464.69727000000006 C 672.1621099999999 463.9003900000001 673.0332099999998 463.5019500000001 674.0644499999999 463.5019500000001 z M 716.1230499999999 463.5019500000001 C 717.4355499999999 463.5019500000001 718.4628899999999 464.0058600000001 719.20508 465.0136700000001 C 719.95508 466.0214900000001 720.33008 467.2480500000001 720.33008 468.6933600000001 L 720.33008 469.0800800000001 C 720.33008 470.5488300000001 719.95898 471.78320000000014 719.2167999999999 472.78320000000014 C 718.4746099999999 473.78320000000014 717.4511799999999 474.28320000000014 716.1464799999999 474.28320000000014 C 714.8183599999999 474.28320000000014 713.7831999999999 473.78320000000014 713.0410199999999 472.78320000000014 C 712.2988199999999 471.78320000000014 711.9277299999999 470.5488300000001 711.9277299999999 469.0800800000001 L 711.9277299999999 468.6933600000001 C 711.9277299999999 467.2480500000001 712.2988199999999 466.0214900000001 713.0410199999999 465.0136700000001 C 713.7831999999999 464.0058600000001 714.8105499999999 463.5019500000001 716.1230499999999 463.5019500000001 z M 390.5058599999999 463.5253900000001 C 391.45897999999994 463.5253900000001 392.2285099999999 463.75977000000006 392.8144499999999 464.22852000000006 C 393.4003899999999 464.68946000000005 393.8496099999999 465.29102000000006 394.1621099999999 466.0332000000001 L 394.1621099999999 471.91602000000006 C 393.83397999999994 472.64258000000007 393.36522999999994 473.2128900000001 392.7558599999999 473.6269500000001 C 392.1542999999999 474.0410100000001 391.3964899999999 474.2480500000001 390.48241999999993 474.2480500000001 C 389.2480499999999 474.2480500000001 388.3183599999999 473.7949200000001 387.6933599999999 472.8886700000001 C 387.07616999999993 471.9746100000001 386.76757999999995 470.7558600000001 386.76757999999995 469.2324200000001 L 386.76757999999995 468.9863300000001 C 386.76757999999995 467.37695000000014 387.08007999999995 466.06445000000014 387.70507999999995 465.0488300000001 C 388.3378799999999 464.0332100000001 389.27147999999994 463.52539000000013 390.5058599999999 463.52539000000013 z M 411.17772999999994 463.5253900000001 C 412.4121099999999 463.5253900000001 413.3496099999999 464.03321000000005 413.99022999999994 465.04883000000007 C 414.6308599999999 466.0644500000001 414.95116999999993 467.3769500000001 414.95116999999993 468.98633000000007 L 414.95116999999993 469.23242000000005 C 414.95116999999993 470.75586000000004 414.6308599999999 471.97851 413.99022999999994 472.9003900000001 C 413.35742999999997 473.8222600000001 412.4277399999999 474.2832000000001 411.20116999999993 474.2832000000001 C 410.29491999999993 474.2832000000001 409.5371099999999 474.0839900000001 408.92772999999994 473.6855500000001 C 408.32616999999993 473.2871100000001 407.8652399999999 472.7402400000001 407.54491999999993 472.0449200000001 L 407.54491999999993 465.9511700000001 C 407.8417999999999 465.2324200000001 408.2831999999999 464.65039000000013 408.86913999999996 464.2050800000001 C 409.46288999999996 463.7519600000001 410.23242999999997 463.52539000000013 411.17772999999994 463.52539000000013 z M 491.7558599999999 463.5253900000001 C 492.70897999999994 463.5253900000001 493.4785099999999 463.75977000000006 494.0644499999999 464.22852000000006 C 494.6503899999999 464.68946000000005 495.0996099999999 465.29102000000006 495.4121099999999 466.0332000000001 L 495.4121099999999 471.91602000000006 C 495.08397999999994 472.64258000000007 494.61522999999994 473.2128900000001 494.0058599999999 473.6269500000001 C 493.4042999999999 474.0410100000001 492.6464899999999 474.2480500000001 491.73241999999993 474.2480500000001 C 490.4980499999999 474.2480500000001 489.5683599999999 473.7949200000001 488.9433599999999 472.8886700000001 C 488.32616999999993 471.9746100000001 488.01757999999995 470.7558600000001 488.01757999999995 469.2324200000001 L 488.01757999999995 468.9863300000001 C 488.01757999999995 467.37695000000014 488.33007999999995 466.06445000000014 488.95507999999995 465.0488300000001 C 489.5878799999999 464.0332100000001 490.52147999999994 463.52539000000013 491.7558599999999 463.52539000000013 z M 599.56836 463.5253900000001 C 600.52149 463.5253900000001 601.29102 463.75977000000006 601.87695 464.22852000000006 C 602.46289 464.68946000000005 602.91211 465.29102000000006 603.22461 466.0332000000001 L 603.22461 471.91602000000006 C 602.89648 472.64258000000007 602.42773 473.2128900000001 601.81836 473.6269500000001 C 601.2168 474.0410100000001 600.45899 474.2480500000001 599.5449199999999 474.2480500000001 C 598.3105499999999 474.2480500000001 597.38086 473.7949200000001 596.75586 472.8886700000001 C 596.1386699999999 471.9746100000001 595.83008 470.7558600000001 595.83008 469.2324200000001 L 595.83008 468.9863300000001 C 595.83008 467.37695000000014 596.14258 466.06445000000014 596.76758 465.0488300000001 C 597.4003899999999 464.0332100000001 598.33399 463.52539000000013 599.56836 463.52539000000013 z M 642.62305 463.5253900000001 C 643.56055 463.5253900000001 644.32227 463.75196000000005 644.9082000000001 464.20508000000007 C 645.50196 464.6582000000001 645.9550800000001 465.2441400000001 646.2675800000001 465.9628900000001 L 646.2675800000001 471.9628900000001 C 645.93164 472.6738200000001 645.4589800000001 473.23242000000005 644.8496100000001 473.63867000000005 C 644.2480500000001 474.04492000000005 643.4980500000001 474.24805000000003 642.5996100000001 474.24805000000003 C 641.3652400000001 474.24805000000003 640.4394500000001 473.79492000000005 639.8222700000001 472.88867000000005 C 639.2128900000001 471.98242000000005 638.9082000000001 470.76367000000005 638.9082000000001 469.23242000000005 L 638.9082000000001 468.98633000000007 C 638.9082000000001 467.3691400000001 639.2168 466.0566400000001 639.8339800000001 465.04883000000007 C 640.4589800000001 464.03321000000005 641.3886700000002 463.5253900000001 642.6230500000001 463.5253900000001 z M 310.11523000000005 469.1621100000001 L 312.9394500000001 469.1621100000001 L 312.9394500000001 471.7050800000001 C 312.59571000000005 472.4472700000001 312.0371100000001 473.05274000000014 311.2636700000001 473.5214800000001 C 310.4902400000001 473.9902400000001 309.5957000000001 474.2246100000001 308.5800800000001 474.2246100000001 C 307.75195000000014 474.2246100000001 307.0996100000001 474.0175800000001 306.62305000000015 473.6035200000001 C 306.1542900000002 473.18164000000013 305.91992000000016 472.6308600000001 305.91992000000016 471.9511700000001 C 305.91992000000016 471.1464900000001 306.2988300000002 470.4824200000001 307.0566400000002 469.9589800000001 C 307.8222700000002 469.4277400000001 308.8418000000002 469.1621100000001 310.11523000000017 469.1621100000001 z M 740.0527300000001 473.2988300000001 L 740.0527300000001 475.22070000000014 L 741.6582000000001 475.22070000000014 L 741.6582000000001 473.2988300000001 L 740.0527300000001 473.2988300000001 z" stroke-linecap="round" />
</g>
</svg>